<?xml version="1.0" encoding="UTF-8" standalone="no"?>
<!-- Created with Inkscape (http://www.inkscape.org/) -->

<svg
   width="11.566mm"
   height="14.186mm"
   viewBox="0 0 11.566 14.186"
   version="1.1"
   id="svg1"
   inkscape:version="1.4.2 (ebf0e940d0, 2025-05-08)"
   sodipodi:docname="monolithlogo.svg"
   xmlns:inkscape="http://www.inkscape.org/namespaces/inkscape"
   xmlns:sodipodi="http://sodipodi.sourceforge.net/DTD/sodipodi-0.dtd"
   xmlns="http://www.w3.org/2000/svg"
   xmlns:svg="http://www.w3.org/2000/svg">
  <sodipodi:namedview
     id="namedview1"
     pagecolor="#ffffff"
     bordercolor="#000000"
     borderopacity="0.25"
     inkscape:showpageshadow="2"
     inkscape:pageopacity="0.0"
     inkscape:pagecheckerboard="0"
     inkscape:deskcolor="#d1d1d1"
     inkscape:document-units="mm"
     inkscape:zoom="4.0265009"
     inkscape:cx="-19.123304"
     inkscape:cy="69.415109"
     inkscape:window-width="1920"
     inkscape:window-height="1008"
     inkscape:window-x="0"
     inkscape:window-y="0"
     inkscape:window-maximized="1"
     inkscape:current-layer="layer1" />
  <defs
     id="defs1" />
  <g
     inkscape:label="Layer 1"
     inkscape:groupmode="layer"
     id="layer1">
    <path
       d="m 8.9048944,11.952923 c -0.08665,0.343501 -0.348485,0.70671 -0.620834,0.986216 l 0.01677,0.01299 -0.143116,0.18497 c -0.02146,0.02831 -0.05546,0.04659 -0.09373,0.04659 -0.06492,0 -0.117552,-0.05263 -0.117552,-0.117552 v -0.235106 h 0.0072 l -0.0049,-0.02326 c 0.142264,-0.344628 0.125582,-0.629409 0.106968,-0.989571 -0.01111,-0.214939 0.01781,-0.434046 5.29e-4,-0.648457 -0.03866,-0.478657 -0.179271,-0.955794 -0.182552,-1.4311517 0,0 0,-0.01122 0.0035,-0.02673 -0.03894,-0.313947 -0.0035,-0.663419 -0.0035,-0.955577 0,-0.370774 0.01101,-0.735682 -0.118853,-1.090557 -0.0717,-0.195932 -0.149056,-0.413705 -0.233011,-0.604113 -0.04902,-0.111178 -0.157374,-0.194167 -0.189595,-0.311322 -0.04592,-0.166947 -0.0011,-0.400312 0.0349,-0.566174 0.07917,-0.366207 0.15625,-0.690541 0.305488,-1.013304 l -0.01495,-0.003 0.03595,-0.179774 c 0.0099,-0.05494 0.05792,-0.09663 0.115697,-0.09663 0.06492,0 0.117552,0.05263 0.117552,0.117552 v 0.142451 c 0.0177,0.261919 0.08637,0.580748 0.172477,0.830096 0.03084,0.08932 0.126026,0.168529 0.189931,0.25078 -0.0016,-0.0048 -0.0026,-0.0092 -0.0021,-0.01283 0.0092,-0.0808 0.03933,-0.158149 0.06749,-0.234437 0.03428,-0.09286 0.08318,-0.180408 0.111313,-0.275315 0.08649,-0.286445 0.28135,-0.560839 0.318151,-0.860644 0.112453,-0.916099 -0.157957,-1.76316 -0.352687,-2.635112 l -0.0036,0.0019 -0.104084,-0.208172 c -0.0086,-0.01633 -0.01347,-0.03494 -0.01347,-0.05469 0,-0.06492 0.05263,-0.117551 0.117551,-0.117551 0.03132,0 0.05977,0.01225 0.08084,0.03221 l 0.108288,0.102132 c 0.501457,0.418144 0.815533,0.895365 1.060331,1.497882 0.05738,0.141224 0.126601,0.278906 0.179091,0.422059 -0.081,-0.904349 -0.395726,-1.727481 -0.973732,-2.444309 -0.185987,-0.230655 -0.445204,-0.362545 -0.677466,-0.53876801 l -0.01183,0.02365 -0.143248,-0.07163 c -0.03976,-0.01884 -0.06726,-0.05935 -0.06726,-0.10628 0,-0.06492 0.05263,-0.117552 0.117552,-0.117552 0.0087,0 0.01725,0.0011 0.02543,0.0028 l 0.179528,0.0359 -5.29e-4,0.0026 0.0076,-7.94e-4 c 0.08145,0.02772 0.162896,0.05543 0.244343,0.08314 0.08227,0.06882 0.202226,0.07227 0.305829,0.100041 0.237837,0.06376 0.597893,0.24054901 0.798132,0.38079401 0.4614066,0.323159 0.9060626,0.774639 1.1644066,1.280104 0.225304,0.44082 0.310719,0.941303 0.52396,1.38633 0.03702,0.288491 0.204695,0.557368 0.215873,0.845661 0.0084,0.215365 -0.02418,0.632875 -0.07698,0.834919 -0.03539,0.13544 -0.129448,0.250246 -0.168471,0.384683 -0.07312,0.251926 -0.116546,0.489445 -0.275894,0.702895 -0.301239,0.403529 -0.729504,0.68595 -1.041898,1.075118 -0.1852106,0.140848 -0.3141416,0.35124 -0.4177346,0.558742 -0.13858,0.277585 -0.296134,0.555636 -0.348921,0.867794 -0.07066,0.417835 0.0094,0.8988757 0.09902,1.3417037 0.0182,0.01439 0.02828,0.02953 0.02828,0.02953 l 0.08245,0.126796 c 0.182059,0.698077 0.150407,1.463201 0.08196,2.17455 -0.03732,0.387871 -0.027,0.684323 -0.1314,1.00835 l 0.03493,0.0078 -0.0505,0.227245 c -0.0108,0.05379 -0.05829,0.09431 -0.115255,0.09431 -0.06492,0 -0.117552,-0.05263 -0.117552,-0.117551 v -0.128712 c 0,-0.492959 0.02795,-0.992706 -0.06883,-1.478293 -0.05952,-0.178912 -0.101854,-0.376661 -0.162118,-0.564727 -0.0029,0.01929 -0.0065,0.03822 -0.01119,0.05665 z"
       fill="#5a718d"
       stroke="none"
       stroke-width="0.132292"
       stroke-linecap="butt"
       id="path100"
       style="mix-blend-mode:normal;fill:#4870a2;fill-opacity:1;fill-rule:nonzero;stroke-linejoin:miter;stroke-miterlimit:10;stroke-dasharray:none;stroke-dashoffset:0" />
    <path
       d="m 2.6502244,11.896268 c -0.06027,0.188066 -0.102595,0.38581 -0.162118,0.564727 -0.09678,0.485587 -0.06883,0.985335 -0.06883,1.478293 v 0.128709 c 0,0.06492 -0.05263,0.117552 -0.117551,0.117552 -0.05697,0 -0.104468,-0.04052 -0.115255,-0.09431 l -0.0505,-0.227246 0.03492,-0.0078 c -0.104407,-0.324027 -0.09408,-0.620477 -0.1314,-1.008351 -0.06845,-0.711345 -0.100097,-1.476473 0.08196,-2.174549 l 0.08246,-0.126797 c 0,0 0.01008,-0.01513 0.02828,-0.02953 0.0896,-0.442828 0.169675,-0.9238697 0.09902,-1.3417047 -0.05278,-0.312158 -0.210344,-0.590209 -0.348922,-0.867794 -0.103592,-0.207502 -0.232523,-0.417893 -0.417734,-0.558741 -0.312394,-0.389168 -0.740657,-0.671592 -1.041898,-1.075119 -0.159345,-0.213452 -0.202771,-0.450969 -0.275894,-0.702895 -0.03902,-0.134434 -0.13308,-0.249245 -0.168471,-0.384683 -0.05279,-0.202043 -0.08534,-0.619553 -0.07699,-0.834919 0.01117,-0.28829 0.178851,-0.55717 0.215874,-0.845661 0.213241,-0.445027 0.298656,-0.94551 0.523959,-1.386329 0.258342,-0.505463 0.703001,-0.956943 1.164408,-1.280105 0.200237,-0.140242 0.560295,-0.31703401 0.798131,-0.38079301 0.103601,-0.02777 0.22356,-0.03122 0.30583,-0.100042 0.08145,-0.02772 0.162896,-0.05543 0.244342,-0.08314 l 0.0076,7.94e-4 -5.29e-4,-0.0026 0.179527,-0.0359 c 0.0082,-0.0019 0.0167,-0.0028 0.02543,-0.0028 0.06492,0 0.117552,0.05263 0.117552,0.117551 0,0.04693 -0.0275,0.08743 -0.06726,0.106281 l -0.143248,0.07162 -0.01183,-0.02365 c -0.232262,0.17622101 -0.49148,0.30811601 -0.677466,0.53876901 -0.578006,0.716825 -0.892733,1.539957 -0.973733,2.444308 0.05249,-0.143155 0.121714,-0.280837 0.179092,-0.422058 0.244795,-0.602517 0.558874,-1.079738 1.060331,-1.497883 l 0.108288,-0.102132 c 0.02106,-0.01998 0.04952,-0.0322 0.08084,-0.0322 0.06492,0 0.117552,0.05263 0.117552,0.117552 0,0.01974 -0.0049,0.03835 -0.01347,0.05469 l -0.104085,0.208171 -0.0036,-0.0019 c -0.194731,0.871956 -0.46514,1.719016 -0.352687,2.635112 0.0368,0.299802 0.231664,0.574199 0.318151,0.860645 0.02814,0.0949 0.07703,0.182454 0.111313,0.275315 0.02816,0.07629 0.05831,0.153638 0.06749,0.234436 5.29e-4,0.0036 -5.29e-4,0.008 -0.0021,0.01283 0.06391,-0.08225 0.159086,-0.16146 0.189931,-0.25078 0.08611,-0.249352 0.154768,-0.568174 0.172477,-0.830096 v -0.142452 c 0,-0.06492 0.05263,-0.117551 0.117552,-0.117551 0.05778,0 0.105828,0.04169 0.115697,0.09663 l 0.03595,0.179774 -0.01495,0.003 c 0.149235,0.322762 0.226311,0.647091 0.305488,1.013304 0.03586,0.165862 0.08083,0.399227 0.0349,0.566174 -0.03222,0.117152 -0.140579,0.200144 -0.189596,0.311322 -0.08395,0.19041 -0.161311,0.408183 -0.23301,0.604112 -0.12986,0.354875 -0.118854,0.719786 -0.118854,1.090557 0,0.292158 0.03547,0.641631 -0.0035,0.955577 0.0035,0.01551 0.0035,0.02673 0.0035,0.02673 -0.0033,0.4753587 -0.143888,0.9524927 -0.182552,1.4311527 -0.01733,0.21441 0.01162,0.433522 5.3e-4,0.648459 -0.01863,0.360159 -0.0353,0.644949 0.106968,0.989571 l -0.0049,0.02326 h 0.0072 v 0.235106 c 0,0.06492 -0.05263,0.117552 -0.117551,0.117552 -0.03827,0 -0.07226,-0.01828 -0.09373,-0.04659 l -0.143116,-0.184971 0.01677,-0.01299 c -0.272349,-0.279503 -0.534183,-0.642712 -0.620834,-0.986216 -0.0047,-0.01844 -0.0083,-0.03736 -0.01119,-0.05665 z"
       data-paper-data="{&quot;index&quot;:null}"
       fill="#5a718d"
       stroke="none"
       stroke-width="0.132292"
       stroke-linecap="butt"
       id="path101"
       style="mix-blend-mode:normal;fill:#4870a2;fill-opacity:1;fill-rule:nonzero;stroke-linejoin:miter;stroke-miterlimit:10;stroke-dasharray:none;stroke-dashoffset:0" />
    <path
       d="M 6.0863044,5.862945e-4 C 6.2489064,0.01862629 6.2566114,0.27295629 6.2863824,0.36835729 c 0.06623,0.212214 0.163478,0.448267 0.287679,0.64927101 0.1178,0.09883 0.249348,0.18188 0.387961,0.244025 l -3e-6,-2e-6 c 0.111945,0.05019 0.374116,0.08787 0.426228,0.220369 0.07112,0.180832 -0.03794,0.246131 -0.105952,0.374279 -0.170844,0.321916 -0.309174,0.714891 -0.400926,1.065541 -0.203113,0.54247 -0.300519,1.126781 -0.407892,1.693997 l -0.0028,0.0048 0.0013,5.29e-4 -0.06387,0.22356 c -0.01318,0.05049 -0.05912,0.08776 -0.113745,0.08776 -0.05642,0 -0.10355,-0.03974 -0.114932,-0.09275 l -0.0537,-0.226428 0.0379,-0.009 c -0.13502,-0.483137 -0.07522,-0.980583 -0.262919,-1.470154 -0.02937,-0.07661 -0.07062,-0.138272 -0.117692,-0.19222 -0.04707,0.05395 -0.08832,0.115615 -0.11769,0.19222 -0.187703,0.489574 -0.127899,0.98702 -0.262919,1.470154 l 0.0379,0.009 -0.0537,0.226428 c -0.01138,0.05301 -0.05851,0.09275 -0.114932,0.09275 -0.05463,0 -0.100555,-0.03726 -0.113745,-0.08776 l -0.06387,-0.22356 0.0013,-5.29e-4 -0.0028,-0.0048 c -0.107374,-0.567216 -0.20478,-1.15153 -0.407893,-1.693997 -0.09175,-0.350653 -0.230084,-0.743625 -0.400925,-1.065541 -0.06801,-0.128151 -0.177075,-0.193447 -0.105953,-0.374279 0.05211,-0.132498 0.314283,-0.17018 0.426228,-0.220369 0.138615,-0.06215 0.270158,-0.145188 0.387961,-0.244025 0.124206,-0.20100401 0.221451,-0.43705501 0.287679,-0.64927201 0.02977,-0.0954 0.03748,-0.349718 0.200078,-0.3677709955 0.09806,-0.0108700045 0.219361,0.1323529955 0.303144,0.2486079955 0.08378,-0.116255 0.205084,-0.259496 0.303143,-0.2486049955 z"
       fill="#5a718d"
       stroke="none"
       stroke-width="0.132292"
       stroke-linecap="butt"
       id="path102"
       style="mix-blend-mode:normal;fill:#4870a2;fill-opacity:1;fill-rule:nonzero;stroke-linejoin:miter;stroke-miterlimit:10;stroke-dasharray:none;stroke-dashoffset:0" />
  </g>
</svg>
